<svg xmlns="http://www.w3.org/2000/svg" viewBox="0 0 1600 900" preserveAspectRatio="xMidYMid slice" role="img" aria-label="A 1911 villa among trees">
<defs>
<linearGradient id="sky" x1="0" y1="0" x2="0" y2="1"><stop offset="0" stop-color="#EFE7D4"/><stop offset="1" stop-color="#F6F2E9"/></linearGradient>
<filter id="grain"><feTurbulence type="fractalNoise" baseFrequency="0.85" numOctaves="3" stitchTiles="stitch"/><feColorMatrix type="saturate" values="0"/></filter>
</defs>
<rect width="1600" height="900" fill="url(#sky)"/>
<circle cx="1290" cy="190" r="120" fill="#F5C11E"/>
<g fill="#26382E" opacity=".92">
  <path d="M0 900V560c60-10 92-64 120-64s52 40 96 34 62-54 104-46 58 62 104 58V900z"/>
  <path d="M1600 900V520c-70-6-96-58-128-56s-54 44-100 40-70-48-112-38-56 60-104 60V900z"/>
</g>
<g opacity=".5" fill="#26382E">
  <ellipse cx="180" cy="430" rx="130" ry="160"/><rect x="170" y="520" width="18" height="180"/>
  <ellipse cx="1420" cy="400" rx="150" ry="180"/><rect x="1410" y="500" width="20" height="200"/>
</g>
<g>
  <rect x="520" y="300" width="560" height="420" fill="#F1E6CF"/>
  <path d="M480 310 800 150l320 160z" fill="#C6603F"/>
  <path d="M480 310 800 150l320 160z" fill="#16130F" opacity=".12"/>
  <rect x="520" y="700" width="560" height="20" fill="#16130F" opacity=".18"/>
  <g fill="#26382E">
    <rect x="566" y="360" width="72" height="112" rx="36"/><rect x="676" y="360" width="72" height="112" rx="36"/>
    <rect x="852" y="360" width="72" height="112" rx="36"/><rect x="962" y="360" width="72" height="112" rx="36"/>
    <rect x="566" y="530" width="72" height="120"/><rect x="676" y="530" width="72" height="120"/>
    <rect x="962" y="530" width="72" height="120"/>
  </g>
  <g fill="#F5C11E">
    <rect x="852" y="530" width="72" height="120"/>
    <rect x="676" y="360" width="72" height="112" rx="36" opacity=".85"/>
  </g>
  <rect x="768" y="560" width="64" height="160" rx="32" fill="#16130F"/>
  <rect x="782" y="592" width="8" height="8" rx="4" fill="#F5C11E"/>
  <path d="M740 720h120l24 40H716z" fill="#EADFC6"/>
</g>
<g fill="#26382E">
  <rect x="300" y="640" width="14" height="90"/><ellipse cx="307" cy="600" rx="70" ry="80"/>
  <rect x="1256" y="620" width="16" height="110"/><ellipse cx="1264" cy="570" rx="82" ry="94"/>
</g>
<rect y="720" width="1600" height="180" fill="#26382E"/>
<g fill="#F5C11E" opacity=".25"><path d="M0 760c220 30 420-24 640 0s340 52 560 24 400-42 400-42v-40H0z"/></g>
<rect width="1600" height="900" filter="url(#grain)" opacity=".16" style="mix-blend-mode:multiply"/>
</svg>
